# xmcd CD database file
#
# Track frame offsets:
#	150
#	20349
#	39578
#	59757
#
# Disc length: 1047 seconds
#
# Revision: 0
# Processed by: cddbd v1.5.1PL2 Copyright (c) Steve Scherf et al.
# Submitted via: CDex 1.51
#
DISCID=30041504
DTITLE=ALI PROJECT - 禁じられた遊び
DYEAR=2004
DGENRE=Gothic Rock
TTITLE0=禁じられた遊び
TTITLE1=あたしがアリスだった頃
TTITLE2=禁じられた遊び (off vocal)
TTITLE3=あたしがアリスだった頃 (off vocal)
EXTD=YEAR: 2004
EXTT0=
EXTT1=
EXTT2=
EXTT3=
PLAYORDER=
